<?xml version="1.0" encoding="UTF-8"?>
<svg id="Calque_2" data-name="Calque 2" xmlns="http://www.w3.org/2000/svg" viewBox="0 0 285.8 50.92">
  <defs>
    <style>
      .cls-1 {
        fill: #262626;
      }

      .cls-2 {
        fill: #8fc261;
      }
    </style>
  </defs>
  <g id="V3">
    <g>
      <path class="cls-1" d="M70.02,43.46c-5.02-4.97-7.52-10.97-7.52-18s2.51-13.03,7.52-18S81.03,0,88,0c4.28,0,8.61.48,12.99,1.45v7.31c-4.34-.97-8.67-1.45-12.99-1.45-4.88,0-8.99,1.77-12.33,5.32-3.34,3.55-5.02,7.82-5.02,12.82s1.68,9.28,5.04,12.82c3.36,3.55,7.46,5.32,12.31,5.32,4.28,0,8.61-.48,12.99-1.45v7.31c-4.34.97-8.67,1.45-12.99,1.45-6.97,0-12.96-2.48-17.98-7.45Z"/>
      <path class="cls-1" d="M112.99,34.79V1.45h8.16v33.63c0,2.71,1.18,4.81,3.53,6.29,2.36,1.48,5.11,2.22,8.26,2.22s5.94-.74,8.28-2.22c2.34-1.48,3.51-3.58,3.51-6.29V1.45h8.16v33.33c0,5-2.05,8.94-6.16,11.81-4.11,2.88-8.71,4.31-13.81,4.31s-9.7-1.42-13.79-4.27-6.14-6.8-6.14-11.86Z"/>
      <path class="cls-1" d="M166.81,49.46V1.45h5.9l1.2,3.38c4.11-3.12,7.76-4.7,10.95-4.74,3.47,0,6.67.77,9.61,2.3l-3.14,6.47c-2.75-.97-5.28-1.45-7.6-1.45-3.19,0-6.11,1.19-8.77,3.56v38.49h-8.16Z"/>
      <path class="cls-1" d="M207.06,43.46c-5.02-4.97-7.53-10.97-7.53-18s2.51-13.03,7.53-18c5.02-4.97,11.01-7.45,17.98-7.45,4.28,0,8.61.48,12.99,1.45v7.31c-4.34-.97-8.67-1.45-12.99-1.45-4.88,0-8.99,1.77-12.33,5.32-3.35,3.55-5.02,7.82-5.02,12.82s1.68,9.28,5.04,12.82c3.36,3.55,7.46,5.32,12.31,5.32,4.28,0,8.61-.48,12.99-1.45v7.31c-4.34.97-8.67,1.45-12.99,1.45-6.97,0-12.96-2.48-17.98-7.45Z"/>
      <path class="cls-1" d="M247.17,34.4c0-4.24,1.55-7.78,4.67-10.63s7.48-4.27,13.11-4.27h12.69v-3.77c0-3.03-.58-5.19-1.72-6.48s-3.28-1.94-6.38-1.94c-2.3,0-5.79.19-10.49.55l-6.47.79.03-7.21c3.39-.25,5.89-.47,7.51-.66,5.74-.5,9.97-.77,12.69-.8,4.47,0,7.75,1.28,9.85,3.84s3.15,5.52,3.15,8.86v36.76h-6.05l-1.3-4.45h-.27c-5.54,3.62-10.85,5.42-15.95,5.39-4.85,0-8.57-1.63-11.17-4.91-2.6-3.27-3.89-6.97-3.89-11.09ZM255.32,34.4c0,2.54.66,4.82,1.97,6.83,1.32,2.01,3.48,3.02,6.48,3.02,2.13,0,4.51-.47,7.14-1.4,2.63-.94,4.84-2.02,6.62-3.26h.09v-13.95h-12.78c-6.36,0-9.54,2.92-9.54,8.76Z"/>
    </g>
    <path class="cls-2" d="M47.11,12.19c-2.21-3.83-5.23-6.8-9.07-8.89C34.21,1.2,29.93.16,25.21.16s-8.99,1.05-12.83,3.14c-3.83,2.09-6.86,5.06-9.07,8.89-2.21,3.83-3.32,8.26-3.32,13.27s1.08,9.44,3.23,13.27c2.15,3.83,5.12,6.8,8.89,8.89,3.77,2.09,8.02,3.14,12.74,3.14s9.1-1.05,12.96-3.14c3.86-2.09,6.93-5.06,9.2-8.89,2.27-3.83,3.41-8.26,3.41-13.27s-1.11-9.44-3.32-13.27ZM11.1,11.83c.92-.92,3.63.29,6.05,2.71s3.64,5.13,2.71,6.05-3.63-.29-6.05-2.71-3.64-5.13-2.71-6.05ZM5.6,25.8c0-1.3,2.77-2.36,6.2-2.36s6.2,1.06,6.2,2.36-2.77,2.36-6.2,2.36-6.2-1.06-6.2-2.36ZM17.64,36.86c-2.42,2.42-5.13,3.64-6.05,2.71-.92-.92.29-3.63,2.71-6.05,2.42-2.42,5.13-3.64,6.05-2.71.92.92-.29,3.63-2.71,6.05ZM24.87,5.85c1.3,0,2.36,2.77,2.36,6.2s-1.06,6.2-2.36,6.2-2.36-2.77-2.36-6.2,1.06-6.2,2.36-6.2ZM25.56,45.07c-1.3,0-2.36-2.77-2.36-6.2s1.06-6.2,2.36-6.2,2.36,2.77,2.36,6.2-1.06,6.2-2.36,6.2ZM32.79,14.06c2.42-2.42,5.13-3.64,6.05-2.71.92.92-.29,3.63-2.71,6.05s-5.13,3.64-6.05,2.71c-.92-.92.29-3.63,2.71-6.05ZM39.33,39.08c-.92.92-3.63-.29-6.05-2.71s-3.64-5.13-2.71-6.05c.92-.92,3.63.29,6.05,2.71s3.64,5.13,2.71,6.05ZM38.63,27.47c-3.42,0-6.2-1.06-6.2-2.36s2.77-2.36,6.2-2.36,6.2,1.06,6.2,2.36-2.77,2.36-6.2,2.36Z"/>
  </g>
</svg>