<?xml version="1.0" encoding="UTF-8"?>
<svg id="Calque_2" data-name="Calque 2" xmlns="http://www.w3.org/2000/svg" viewBox="0 0 859.33 161.14">
  <defs>
    <style>
      .cls-1 {
        fill: #1d1d1b;
      }

      .cls-2 {
        fill: #090a0a;
        stroke: #090a0a;
        stroke-width: 4px;
      }
    </style>
  </defs>
  <g id="Calque_2-2" data-name="Calque 2">
    <g>
      <path class="cls-1" d="M194.73,71.84l-17.61-7.32c-3.29-1.31-5.52-2.42-6.69-3.31-1.18-.89-1.76-1.99-1.76-3.31,0-.75.14-1.36.42-1.83.28-.47.75-.84,1.41-1.13.66-.28,1.57-.47,2.75-.56,1.17-.09,2.65-.14,4.44-.14,6.1,0,12.28.02,18.52.07,6.24.05,11.48.12,15.71.21l1.83-19.58c-5.82-2.06-11.9-3.4-18.24-4.02-6.34-.61-12.04-.92-17.12-.92-7.33,0-13.55.47-18.66,1.41-5.12.94-9.23,2.49-12.33,4.65-3.1,2.16-5.38,5.07-6.83,8.73-1.46,3.66-2.18,8.26-2.18,13.81,0,7.14,1.64,12.91,4.93,17.33,3.29,4.41,8.87,8.41,16.76,11.97l19.3,8.45c1.78.66,3.15,1.27,4.09,1.83.94.56,1.6,1.15,1.97,1.76.37.61.56,1.39.56,2.32,0,.85-.26,1.53-.77,2.04-.52.52-1.46.87-2.82,1.06-1.36.19-3.36.28-5.99.28-1.69,0-4.25-.02-7.68-.07-3.43-.05-7.49-.14-12.18-.28-4.7-.14-9.86-.26-15.5-.35l-1.83,21.41c8.45,2.16,16.01,3.5,22.68,4.01,6.67.52,11.64.77,14.93.77,7.61,0,13.95-.54,19.02-1.62,5.07-1.08,9.13-2.77,12.18-5.07,3.05-2.3,5.23-5.35,6.55-9.16,1.31-3.8,1.97-8.43,1.97-13.88,0-7.14-1.62-12.98-4.86-17.54-3.24-4.55-8.9-8.57-16.97-12.04Z"/>
      <polygon class="cls-1" points="282.63 66.91 258.12 66.91 258.12 31.97 227.55 31.97 227.55 129.17 258.12 129.17 258.12 88.32 282.63 88.32 282.63 129.17 313.2 129.17 313.2 31.97 282.63 31.97 282.63 66.91"/>
      <path class="cls-1" d="M389.13,34.08c-1.88-1.41-4.04-2.11-6.48-2.11h-27.75c-2.44,0-4.6.71-6.48,2.11-1.88,1.41-3.15,3.33-3.8,5.78l-25.22,89.31h31.13l4.86-20.99h26.76l4.86,20.99h31.13l-25.22-89.31c-.66-2.44-1.93-4.37-3.8-5.78ZM360.35,86.77l4.83-20.85c.37-1.78.7-3.64.99-5.56.28-1.92.51-3.78.71-5.56h3.8c.19,1.79.42,3.64.7,5.56.28,1.93.61,3.78.99,5.56l4.83,20.85h-16.84Z"/>
      <path class="cls-1" d="M498.72,90.22c-1.88-2.11-3.9-3.61-6.06-4.51-2.16-.89-4.13-1.43-5.92-1.62v-.85c5.07-.56,9.04-1.92,11.9-4.08,2.86-2.16,4.88-4.91,6.06-8.24,1.17-3.33,1.76-6.92,1.76-10.78,0-7.61-1.43-13.55-4.3-17.82-2.87-4.27-7.3-7.3-13.31-9.09-6.01-1.78-13.81-2.68-23.38-2.68-6.48,0-12,.02-16.55.07-4.56.05-8.73.16-12.54.35-3.8.19-7.87.52-12.18.99v97.2h30v-35.6c2.84.02,5.98.06,9.44.1,2.63,0,4.53.42,5.71,1.27,1.17.85,2.04,2.63,2.61,5.35l6.34,28.88h31.98l-7.61-29.86c-.75-3.94-2.07-6.97-3.95-9.09ZM474.84,68.24c-.61,1.46-1.71,2.47-3.31,3.03-1.6.56-3.85.84-6.76.84h-10.56v-19.98c3.29-.01,6.81-.02,10.56-.02,2.91,0,5.16.28,6.76.84,1.6.56,2.7,1.55,3.31,2.96.61,1.41.92,3.48.92,6.2s-.31,4.67-.92,6.13Z"/>
      <path class="cls-1" d="M584.79,33.45c-5.83-1.92-13.9-2.89-24.23-2.89-6.48,0-11.97.02-16.48.07-4.51.05-8.66.16-12.47.35-3.8.19-7.87.52-12.19.99v97.2h30.57v-33.54c.24.03.46.06.7.08,4.7.52,9.39.77,14.09.77,8.92,0,16.01-.96,21.27-2.89,5.26-1.92,9.04-5.26,11.34-10,2.3-4.74,3.45-11.39,3.45-19.93s-1.22-15.35-3.66-20.14c-2.45-4.79-6.58-8.15-12.4-10.07ZM569.43,70.64c-.56,1.64-1.6,2.77-3.1,3.38-1.5.61-3.66.92-6.48.92h-9.86v-22.8c3.1-.01,6.39-.02,9.86-.02,2.82,0,4.98.31,6.48.92,1.5.61,2.54,1.76,3.1,3.45.57,1.69.85,4.08.85,7.18s-.28,5.33-.85,6.97Z"/>
      <path class="cls-1" d="M641.84,56.2c1.03-.94,2.44-1.41,4.23-1.41h35.64l1.41-21.55c-4.7-.66-9.91-1.1-15.64-1.34-5.73-.23-11.58-.37-17.54-.42-5.96-.05-11.76-.07-17.4-.07-6.67,0-12.14,2.04-16.41,6.13-4.27,4.08-6.41,9.42-6.41,15.99v54.09c0,6.57,2.14,11.9,6.41,15.99,4.27,4.09,9.74,6.13,16.41,6.13,5.63,0,11.43-.02,17.4-.07,5.96-.05,11.81-.21,17.54-.49,5.73-.28,10.94-.7,15.64-1.27l-1.41-21.55h-35.64c-1.78,0-3.19-.47-4.23-1.41-1.03-.94-1.55-2.16-1.55-3.66v-11.69h36.34v-20.29h-36.34v-9.44c0-1.5.52-2.72,1.55-3.66Z"/>
      <path class="cls-1" d="M747.63,71.84l-17.61-7.32c-3.29-1.31-5.52-2.42-6.69-3.31-1.18-.89-1.76-1.99-1.76-3.31,0-.75.14-1.36.42-1.83.28-.47.75-.84,1.41-1.13.66-.28,1.57-.47,2.75-.56,1.17-.09,2.65-.14,4.44-.14,6.1,0,12.28.02,18.52.07,6.24.05,11.48.12,15.71.21l1.83-19.58c-5.82-2.06-11.9-3.4-18.24-4.02-6.34-.61-12.04-.92-17.12-.92-7.33,0-13.55.47-18.66,1.41-5.12.94-9.23,2.49-12.33,4.65-3.1,2.16-5.38,5.07-6.83,8.73-1.46,3.66-2.18,8.26-2.18,13.81,0,7.14,1.64,12.91,4.93,17.33,3.29,4.41,8.87,8.41,16.76,11.97l19.3,8.45c1.78.66,3.14,1.27,4.08,1.83.94.56,1.6,1.15,1.97,1.76.37.61.56,1.39.56,2.32,0,.85-.26,1.53-.78,2.04-.52.52-1.46.87-2.82,1.06-1.36.19-3.36.28-5.99.28-1.69,0-4.25-.02-7.68-.07-3.43-.05-7.49-.14-12.18-.28-4.7-.14-9.86-.26-15.5-.35l-1.83,21.41c8.45,2.16,16.01,3.5,22.68,4.01,6.67.52,11.64.77,14.93.77,7.61,0,13.95-.54,19.02-1.62s9.13-2.77,12.18-5.07c3.05-2.3,5.24-5.35,6.55-9.16,1.31-3.8,1.97-8.43,1.97-13.88,0-7.14-1.62-12.98-4.86-17.54-3.24-4.55-8.9-8.57-16.97-12.04Z"/>
      <polygon class="cls-1" points="859.33 31.97 832.15 31.97 801.58 31.97 774.39 31.97 774.39 54.79 801.58 54.79 801.58 129.17 832.15 129.17 832.15 54.79 859.33 54.79 859.33 31.97"/>
    </g>
    <polygon class="cls-2" points="80.83 76.11 117.34 5.94 9.59 77.29 80.83 76.11"/>
    <polygon class="cls-2" points="41.85 85.02 5.34 155.2 113.08 83.85 41.85 85.02"/>
  </g>
</svg>